<svg xmlns="http://www.w3.org/2000/svg" xmlns:xlink="http://www.w3.org/1999/xlink" width="500" zoomAndPan="magnify" viewBox="0 0 375 374.999991" height="500" preserveAspectRatio="xMidYMid meet" version="1.0"><defs><g/><clipPath id="de358c5d64"><path d="M 162.410156 231.890625 L 174.796875 231.890625 L 174.796875 244.210938 L 162.410156 244.210938 Z M 162.410156 231.890625 " clip-rule="nonzero"/></clipPath><clipPath id="d143dc47a0"><path d="M 200.476562 231.890625 L 212.863281 231.890625 L 212.863281 244.210938 L 200.476562 244.210938 Z M 200.476562 231.890625 " clip-rule="nonzero"/></clipPath><clipPath id="5d76f94301"><path d="M 167 77.828125 L 209 77.828125 L 209 84 L 167 84 Z M 167 77.828125 " clip-rule="nonzero"/></clipPath><clipPath id="33d9e03497"><path d="M 149.386719 133 L 225.886719 133 L 225.886719 237 L 149.386719 237 Z M 149.386719 133 " clip-rule="nonzero"/></clipPath><clipPath id="b1eb77630a"><path d="M 149.386719 134 L 224 134 L 224 237 L 149.386719 237 Z M 149.386719 134 " clip-rule="nonzero"/></clipPath><clipPath id="d2a29c3a88"><path d="M 167.648438 149.601562 L 207.398438 149.601562 L 207.398438 222.351562 L 167.648438 222.351562 Z M 167.648438 149.601562 " clip-rule="nonzero"/></clipPath></defs><path fill="#8f4e55" d="M 202.847656 134 L 202.847656 83.308594 L 206.875 83.308594 L 206.875 134 L 202.847656 134 " fill-opacity="1" fill-rule="nonzero"/><path fill="#8f4e55" d="M 173.433594 83.308594 L 173.433594 132.878906 C 172.632812 133.460938 171.5625 133.644531 170.566406 133.273438 C 170.109375 133.101562 169.71875 132.832031 169.40625 132.5 L 169.40625 83.308594 L 173.433594 83.308594 " fill-opacity="1" fill-rule="nonzero"/><path fill="#8f4e55" d="M 173.433594 132.878906 L 173.433594 134 L 169.40625 134 L 169.40625 132.5 C 169.71875 132.832031 170.109375 133.101562 170.566406 133.273438 C 171.5625 133.644531 172.632812 133.460938 173.433594 132.878906 " fill-opacity="1" fill-rule="nonzero"/><g clip-path="url(#de358c5d64)"><path fill="#a55c60" d="M 174.773438 238.066406 C 174.773438 234.675781 172.019531 231.925781 168.625 231.925781 C 165.226562 231.925781 162.472656 234.675781 162.472656 238.066406 C 162.472656 241.460938 165.226562 244.210938 168.625 244.210938 C 172.019531 244.210938 174.773438 241.460938 174.773438 238.066406 " fill-opacity="1" fill-rule="nonzero"/></g><g clip-path="url(#d143dc47a0)"><path fill="#a55c60" d="M 212.800781 238.066406 C 212.800781 234.675781 210.046875 231.925781 206.648438 231.925781 C 203.253906 231.925781 200.5 234.675781 200.5 238.066406 C 200.5 241.460938 203.253906 244.210938 206.648438 244.210938 C 210.046875 244.210938 212.800781 241.460938 212.800781 238.066406 " fill-opacity="1" fill-rule="nonzero"/></g><path fill="#8f4e55" d="M 172.425781 238.066406 C 172.425781 235.972656 170.722656 234.269531 168.625 234.269531 C 166.523438 234.269531 164.820312 235.972656 164.820312 238.066406 C 164.820312 240.164062 166.523438 241.863281 168.625 241.863281 C 170.722656 241.863281 172.425781 240.164062 172.425781 238.066406 " fill-opacity="1" fill-rule="nonzero"/><path fill="#8f4e55" d="M 210.453125 238.066406 C 210.453125 235.972656 208.75 234.269531 206.648438 234.269531 C 204.550781 234.269531 202.847656 235.972656 202.847656 238.066406 C 202.847656 240.164062 204.550781 241.863281 206.648438 241.863281 C 208.75 241.863281 210.453125 240.164062 210.453125 238.066406 " fill-opacity="1" fill-rule="nonzero"/><g clip-path="url(#5d76f94301)"><path fill="#fbc55f" d="M 206.621094 77.949219 L 169.660156 77.949219 C 168.65625 77.949219 167.839844 78.761719 167.839844 79.765625 L 167.839844 81.492188 C 167.839844 82.496094 168.65625 83.308594 169.660156 83.308594 L 206.621094 83.308594 C 207.625 83.308594 208.4375 82.496094 208.4375 81.492188 L 208.4375 79.765625 C 208.4375 78.761719 207.625 77.949219 206.621094 77.949219 " fill-opacity="1" fill-rule="nonzero"/></g><path fill="#a55c60" d="M 173.433594 133.441406 L 175.882812 130.65625 C 176.886719 129.519531 178.328125 128.867188 179.847656 128.867188 L 196.648438 128.867188 C 198.425781 128.867188 200.078125 129.753906 201.054688 131.234375 L 202.511719 133.441406 L 198.710938 133.441406 C 197.730469 131.980469 196.085938 131.097656 194.320312 131.097656 L 181.941406 131.097656 C 180.3125 131.097656 178.777344 131.847656 177.777344 133.128906 L 177.535156 133.441406 L 173.433594 133.441406 " fill-opacity="1" fill-rule="nonzero"/><g clip-path="url(#33d9e03497)"><path fill="#fbc55f" d="M 212.109375 133.441406 L 163.164062 133.441406 C 161.539062 133.441406 159.976562 133.726562 158.523438 134.242188 C 153.199219 136.144531 149.386719 141.226562 149.386719 147.199219 L 149.386719 222.300781 C 149.386719 229.898438 155.554688 236.058594 163.164062 236.058594 L 212.109375 236.058594 C 212.351562 236.058594 212.59375 236.050781 212.832031 236.039062 C 220.105469 235.664062 225.886719 229.65625 225.886719 222.300781 L 225.886719 147.199219 C 225.886719 139.601562 219.71875 133.441406 212.109375 133.441406 " fill-opacity="1" fill-rule="nonzero"/></g><path fill="#f8a359" d="M 188.738281 220.3125 L 187.207031 220.3125 C 185.28125 220.3125 183.722656 218.753906 183.722656 216.835938 L 183.722656 153.449219 C 183.722656 151.527344 185.28125 149.96875 187.207031 149.96875 L 188.738281 149.96875 C 190.660156 149.96875 192.222656 151.527344 192.222656 153.449219 L 192.222656 216.835938 C 192.222656 218.753906 190.660156 220.3125 188.738281 220.3125 " fill-opacity="1" fill-rule="nonzero"/><path fill="#f8a359" d="M 174.980469 220.3125 L 173.453125 220.3125 C 171.527344 220.3125 169.964844 218.753906 169.964844 216.835938 L 169.964844 153.449219 C 169.964844 151.527344 171.527344 149.96875 173.453125 149.96875 L 174.980469 149.96875 C 176.90625 149.96875 178.464844 151.527344 178.464844 153.449219 L 178.464844 216.835938 C 178.464844 218.753906 176.90625 220.3125 174.980469 220.3125 " fill-opacity="1" fill-rule="nonzero"/><path fill="#f8a359" d="M 202.492188 220.3125 L 200.964844 220.3125 C 199.039062 220.3125 197.480469 218.753906 197.480469 216.835938 L 197.480469 153.449219 C 197.480469 151.527344 199.039062 149.96875 200.964844 149.96875 L 202.492188 149.96875 C 204.417969 149.96875 205.980469 151.527344 205.980469 153.449219 L 205.980469 216.835938 C 205.980469 218.753906 204.417969 220.3125 202.492188 220.3125 " fill-opacity="1" fill-rule="nonzero"/><g clip-path="url(#b1eb77630a)"><path fill="#f8a359" d="M 223.121094 230.566406 C 220.609375 233.902344 216.609375 236.058594 212.109375 236.058594 L 163.164062 236.058594 C 155.554688 236.058594 149.386719 229.898438 149.386719 222.300781 L 149.386719 147.199219 C 149.386719 141.226562 153.199219 136.144531 158.527344 134.242188 C 156.789062 136.542969 155.761719 139.40625 155.761719 142.507812 L 155.761719 217.613281 C 155.761719 225.210938 161.929688 231.367188 169.539062 231.367188 L 218.484375 231.367188 C 220.109375 231.367188 221.671875 231.085938 223.121094 230.566406 " fill-opacity="1" fill-rule="nonzero"/></g><path fill="#fcd890" d="M 205.464844 81.855469 L 198.21875 81.855469 C 197.6875 81.855469 197.253906 81.425781 197.253906 80.894531 L 197.253906 80.472656 C 197.253906 79.941406 197.6875 79.511719 198.21875 79.511719 L 205.464844 79.511719 C 205.996094 79.511719 206.425781 79.941406 206.425781 80.472656 L 206.425781 80.894531 C 206.425781 81.425781 205.996094 81.855469 205.464844 81.855469 " fill-opacity="1" fill-rule="nonzero"/><path fill="#fcd890" d="M 216.367188 146.621094 L 184.851562 146.621094 C 183.054688 146.621094 181.597656 145.164062 181.597656 143.367188 L 181.597656 141.941406 C 181.597656 140.148438 183.054688 138.691406 184.851562 138.691406 L 216.367188 138.691406 C 218.164062 138.691406 219.625 140.148438 219.625 141.941406 L 219.625 143.367188 C 219.625 145.164062 218.164062 146.621094 216.367188 146.621094 " fill-opacity="1" fill-rule="nonzero"/><path fill="#f03860" d="M 174.917969 125.234375 C 174.875 125.207031 174.835938 125.179688 174.792969 125.152344 C 174.429688 124.929688 174.039062 124.734375 173.625 124.578125 C 173.5625 124.558594 173.496094 124.53125 173.433594 124.511719 L 173.433594 127.871094 C 173.480469 127.90625 173.527344 127.941406 173.570312 127.980469 C 174.542969 128.78125 174.949219 130.136719 174.480469 131.382812 C 174.265625 131.957031 173.894531 132.429688 173.433594 132.765625 C 173.210938 132.925781 172.972656 133.058594 172.714844 133.15625 C 172.25 133.332031 171.742188 133.398438 171.234375 133.328125 L 171.230469 133.328125 C 171.007812 133.296875 170.785156 133.242188 170.566406 133.160156 C 170.109375 132.988281 169.71875 132.722656 169.40625 132.386719 C 168.648438 131.570312 168.367188 130.367188 168.785156 129.253906 C 168.890625 128.972656 169.035156 128.71875 169.207031 128.492188 C 169.269531 128.40625 169.335938 128.328125 169.40625 128.253906 L 169.40625 124.453125 C 168.988281 124.585938 168.582031 124.753906 168.199219 124.964844 C 168.089844 125.023438 167.984375 125.085938 167.882812 125.148438 C 166.699219 125.882812 165.738281 126.996094 165.210938 128.402344 L 159.484375 141.496094 L 172.4375 146.339844 L 177.453125 132.980469 C 178.546875 130.066406 177.417969 126.867188 174.917969 125.234375 " fill-opacity="1" fill-rule="nonzero"/><path fill="#e33251" d="M 170.566406 133.160156 C 170.785156 133.242188 171.007812 133.296875 171.230469 133.328125 C 168.660156 133.226562 166.609375 131.117188 166.609375 128.53125 C 166.609375 127.117188 167.222656 125.84375 168.199219 124.964844 C 168.582031 124.753906 168.988281 124.585938 169.40625 124.453125 L 169.40625 128.253906 C 169.335938 128.328125 169.269531 128.40625 169.207031 128.492188 C 169.035156 128.71875 168.890625 128.972656 168.785156 129.253906 C 168.367188 130.367188 168.648438 131.570312 169.40625 132.386719 C 169.71875 132.722656 170.109375 132.988281 170.566406 133.160156 " fill-opacity="1" fill-rule="nonzero"/><g clip-path="url(#d2a29c3a88)"><path fill="#393536" d="M 200.742188 154.804688 C 200.804688 154.824219 200.839844 154.863281 200.84375 154.917969 C 200.847656 154.972656 200.847656 155.042969 200.847656 155.117188 L 200.847656 155.6875 C 200.847656 155.757812 200.851562 155.824219 200.855469 155.878906 C 200.863281 155.929688 200.898438 155.96875 200.960938 155.984375 L 201.011719 155.984375 L 201.0625 155.992188 C 201.082031 155.996094 201.105469 155.996094 201.136719 155.992188 C 201.164062 155.992188 201.1875 155.992188 201.210938 155.992188 L 203.828125 155.992188 C 203.890625 155.992188 203.941406 155.992188 203.984375 156 C 204.023438 156.007812 204.054688 156.03125 204.074219 156.066406 C 204.082031 156.097656 204.085938 156.125 204.085938 156.15625 C 204.085938 156.191406 204.085938 156.222656 204.085938 156.253906 L 204.085938 156.632812 C 204.085938 156.671875 204.082031 156.710938 204.082031 156.742188 C 204.078125 156.78125 204.0625 156.804688 204.042969 156.824219 C 204.011719 156.84375 203.972656 156.851562 203.925781 156.851562 C 203.882812 156.851562 203.832031 156.851562 203.785156 156.851562 L 201.210938 156.851562 C 201.183594 156.851562 201.15625 156.851562 201.128906 156.847656 C 201.101562 156.847656 201.078125 156.851562 201.054688 156.859375 L 201.003906 156.859375 L 200.960938 156.867188 C 200.898438 156.882812 200.863281 156.921875 200.855469 156.980469 C 200.851562 157.035156 200.847656 157.105469 200.847656 157.179688 L 200.847656 157.699219 C 200.847656 157.738281 200.847656 157.785156 200.851562 157.835938 C 200.851562 157.886719 200.851562 157.925781 200.84375 157.953125 C 200.832031 157.988281 200.816406 158.003906 200.792969 158.023438 C 200.777344 158.03125 200.75 158.039062 200.71875 158.042969 C 200.691406 158.042969 200.660156 158.042969 200.632812 158.042969 L 200.359375 158.042969 C 200.3125 158.042969 200.265625 158.042969 200.230469 158.035156 C 200.195312 158.03125 200.167969 158.011719 200.148438 157.984375 C 200.140625 157.972656 200.132812 157.949219 200.125 157.917969 L 200.125 155.101562 C 200.125 155.054688 200.125 155.007812 200.128906 154.960938 C 200.128906 154.914062 200.140625 154.875 200.160156 154.847656 L 200.195312 154.820312 L 200.246094 154.804688 L 200.277344 154.804688 L 200.324219 154.800781 L 200.597656 154.800781 C 200.625 154.800781 200.648438 154.800781 200.671875 154.800781 C 200.699219 154.796875 200.71875 154.800781 200.742188 154.804688 Z M 203.847656 158.339844 C 203.890625 158.339844 203.933594 158.339844 203.972656 158.34375 C 204.011719 158.347656 204.039062 158.363281 204.058594 158.394531 C 204.078125 158.414062 204.085938 158.445312 204.085938 158.480469 C 204.085938 158.511719 204.085938 158.554688 204.085938 158.59375 L 204.085938 161.097656 C 204.085938 161.148438 204.082031 161.191406 204.078125 161.230469 C 204.070312 161.273438 204.054688 161.300781 204.023438 161.320312 C 204.003906 161.335938 203.972656 161.339844 203.9375 161.339844 C 203.902344 161.339844 203.867188 161.339844 203.835938 161.339844 L 200.367188 161.339844 C 200.332031 161.339844 200.296875 161.339844 200.265625 161.339844 C 200.230469 161.339844 200.207031 161.335938 200.1875 161.320312 C 200.160156 161.304688 200.140625 161.277344 200.128906 161.234375 L 200.128906 161.214844 L 200.125 161.191406 L 200.125 158.628906 C 200.125 158.582031 200.128906 158.539062 200.128906 158.5 C 200.132812 158.457031 200.148438 158.425781 200.175781 158.410156 L 200.214844 158.398438 L 200.257812 158.386719 L 200.320312 158.386719 C 200.34375 158.378906 200.375 158.378906 200.402344 158.378906 C 200.433594 158.382812 200.460938 158.386719 200.488281 158.386719 C 200.515625 158.386719 200.542969 158.382812 200.574219 158.378906 C 200.601562 158.378906 200.628906 158.378906 200.65625 158.386719 C 200.671875 158.386719 200.699219 158.390625 200.738281 158.390625 C 200.78125 158.398438 200.8125 158.417969 200.824219 158.445312 C 200.839844 158.464844 200.847656 158.496094 200.847656 158.527344 C 200.847656 158.558594 200.847656 158.59375 200.847656 158.632812 L 200.847656 160.023438 C 200.847656 160.054688 200.847656 160.085938 200.847656 160.125 C 200.84375 160.164062 200.84375 160.203125 200.847656 160.242188 C 200.847656 160.285156 200.851562 160.316406 200.855469 160.351562 C 200.863281 160.382812 200.871094 160.410156 200.882812 160.425781 C 200.898438 160.449219 200.925781 160.464844 200.960938 160.472656 C 200.996094 160.476562 201.039062 160.480469 201.082031 160.480469 L 201.558594 160.480469 C 201.589844 160.472656 201.613281 160.464844 201.636719 160.460938 L 201.683594 160.417969 C 201.699219 160.394531 201.707031 160.371094 201.707031 160.339844 C 201.710938 160.308594 201.710938 160.277344 201.710938 160.246094 L 201.710938 158.988281 C 201.710938 158.960938 201.710938 158.929688 201.707031 158.894531 C 201.707031 158.851562 201.707031 158.8125 201.707031 158.777344 C 201.710938 158.742188 201.710938 158.707031 201.714844 158.675781 C 201.71875 158.644531 201.726562 158.621094 201.738281 158.605469 C 201.75 158.585938 201.773438 158.574219 201.804688 158.566406 C 201.835938 158.558594 201.875 158.554688 201.914062 158.550781 C 201.953125 158.550781 201.992188 158.550781 202.03125 158.550781 C 202.074219 158.554688 202.109375 158.554688 202.140625 158.554688 C 202.164062 158.554688 202.191406 158.554688 202.214844 158.554688 C 202.242188 158.554688 202.265625 158.558594 202.285156 158.566406 C 202.3125 158.574219 202.335938 158.589844 202.355469 158.609375 C 202.367188 158.628906 202.375 158.652344 202.378906 158.6875 C 202.382812 158.71875 202.386719 158.75 202.386719 158.792969 C 202.386719 158.832031 202.382812 158.867188 202.378906 158.90625 C 202.378906 158.949219 202.378906 158.980469 202.378906 159.007812 L 202.378906 160.089844 C 202.378906 160.132812 202.378906 160.179688 202.375 160.214844 C 202.375 160.261719 202.375 160.296875 202.378906 160.332031 C 202.386719 160.367188 202.398438 160.394531 202.414062 160.421875 C 202.429688 160.445312 202.457031 160.464844 202.488281 160.472656 C 202.507812 160.476562 202.527344 160.480469 202.546875 160.480469 C 202.566406 160.480469 202.589844 160.480469 202.605469 160.480469 L 203.128906 160.480469 C 203.171875 160.480469 203.214844 160.476562 203.25 160.472656 C 203.285156 160.464844 203.308594 160.449219 203.328125 160.425781 L 203.347656 160.382812 L 203.363281 160.328125 L 203.363281 160.273438 C 203.367188 160.253906 203.367188 160.234375 203.367188 160.210938 C 203.363281 160.191406 203.363281 160.171875 203.363281 160.152344 L 203.363281 158.574219 C 203.363281 158.550781 203.363281 158.519531 203.363281 158.492188 C 203.363281 158.464844 203.367188 158.441406 203.378906 158.414062 C 203.390625 158.386719 203.410156 158.363281 203.441406 158.355469 C 203.457031 158.347656 203.480469 158.339844 203.507812 158.339844 C 203.535156 158.339844 203.5625 158.339844 203.589844 158.339844 Z M 204.058594 161.808594 C 204.078125 161.832031 204.085938 161.871094 204.085938 161.917969 C 204.085938 161.96875 204.085938 162.011719 204.085938 162.054688 L 204.085938 162.492188 C 204.085938 162.535156 204.089844 162.574219 204.089844 162.613281 C 204.089844 162.65625 204.089844 162.695312 204.082031 162.722656 C 204.066406 162.765625 204.042969 162.800781 204.015625 162.824219 C 203.988281 162.847656 203.957031 162.871094 203.925781 162.894531 C 203.894531 162.917969 203.863281 162.9375 203.832031 162.957031 C 203.800781 162.976562 203.769531 163 203.734375 163.019531 C 203.578125 163.121094 203.429688 163.222656 203.28125 163.328125 C 203.132812 163.429688 202.980469 163.535156 202.824219 163.636719 C 202.761719 163.679688 202.699219 163.71875 202.640625 163.757812 C 202.578125 163.796875 202.519531 163.835938 202.460938 163.878906 C 202.441406 163.890625 202.421875 163.910156 202.398438 163.933594 C 202.375 163.957031 202.363281 163.984375 202.371094 164.023438 C 202.386719 164.058594 202.40625 164.097656 202.445312 164.132812 C 202.484375 164.171875 202.519531 164.203125 202.546875 164.226562 L 202.601562 164.285156 C 202.625 164.300781 202.644531 164.320312 202.660156 164.339844 C 202.6875 164.363281 202.710938 164.390625 202.738281 164.410156 C 202.761719 164.433594 202.789062 164.453125 202.824219 164.464844 C 202.84375 164.476562 202.867188 164.484375 202.894531 164.488281 C 202.921875 164.488281 202.949219 164.488281 202.980469 164.488281 L 203.050781 164.488281 C 203.070312 164.492188 203.09375 164.496094 203.117188 164.492188 C 203.140625 164.488281 203.160156 164.488281 203.179688 164.488281 L 203.835938 164.488281 C 203.875 164.488281 203.914062 164.488281 203.953125 164.492188 C 203.988281 164.496094 204.019531 164.503906 204.042969 164.519531 C 204.0625 164.542969 204.078125 164.570312 204.082031 164.605469 C 204.082031 164.640625 204.085938 164.683594 204.085938 164.722656 L 204.085938 165.101562 C 204.085938 165.140625 204.085938 165.179688 204.082031 165.21875 C 204.082031 165.253906 204.070312 165.285156 204.050781 165.308594 C 204.035156 165.339844 204 165.351562 203.949219 165.351562 C 203.898438 165.351562 203.851562 165.351562 203.800781 165.351562 L 200.421875 165.351562 C 200.378906 165.351562 200.335938 165.351562 200.292969 165.351562 C 200.246094 165.355469 200.210938 165.347656 200.1875 165.335938 C 200.160156 165.308594 200.140625 165.285156 200.128906 165.246094 L 200.128906 165.222656 L 200.125 165.199219 L 200.125 164.773438 C 200.125 164.699219 200.128906 164.640625 200.132812 164.59375 C 200.140625 164.546875 200.171875 164.515625 200.230469 164.496094 C 200.25 164.488281 200.269531 164.488281 200.289062 164.488281 C 200.308594 164.488281 200.332031 164.488281 200.351562 164.488281 L 201.421875 164.488281 C 201.457031 164.488281 201.488281 164.488281 201.519531 164.488281 C 201.554688 164.488281 201.585938 164.484375 201.609375 164.472656 L 201.632812 164.453125 L 201.644531 164.433594 C 201.652344 164.402344 201.644531 164.378906 201.621094 164.351562 C 201.597656 164.328125 201.582031 164.308594 201.570312 164.300781 C 201.542969 164.269531 201.511719 164.242188 201.484375 164.210938 C 201.453125 164.179688 201.421875 164.15625 201.386719 164.128906 L 201.347656 164.082031 L 201.300781 164.039062 L 201.25 164 L 201.214844 163.957031 C 201.1875 163.9375 201.160156 163.914062 201.140625 163.886719 C 201.121094 163.863281 201.097656 163.839844 201.070312 163.820312 C 201.042969 163.800781 201.019531 163.777344 200.996094 163.761719 L 200.976562 163.730469 C 200.917969 163.6875 200.863281 163.636719 200.816406 163.582031 C 200.769531 163.527344 200.714844 163.476562 200.65625 163.433594 L 200.59375 163.371094 L 200.554688 163.335938 L 200.539062 163.328125 L 200.527344 163.308594 C 200.511719 163.289062 200.488281 163.273438 200.464844 163.261719 L 200.441406 163.230469 L 200.421875 163.203125 L 200.371094 163.164062 L 200.320312 163.121094 L 200.300781 163.101562 L 200.285156 163.082031 C 200.25 163.054688 200.21875 163.023438 200.191406 162.992188 C 200.160156 162.957031 200.140625 162.917969 200.128906 162.867188 C 200.125 162.835938 200.121094 162.800781 200.125 162.761719 C 200.125 162.722656 200.125 162.6875 200.125 162.652344 L 200.125 162.226562 C 200.125 162.183594 200.125 162.140625 200.125 162.09375 C 200.121094 162.046875 200.128906 162.011719 200.148438 161.988281 C 200.167969 161.964844 200.1875 161.957031 200.210938 161.96875 C 200.234375 161.980469 200.253906 161.992188 200.269531 162 L 200.324219 162.054688 L 200.375 162.109375 C 200.40625 162.136719 200.433594 162.160156 200.457031 162.183594 C 200.484375 162.207031 200.511719 162.234375 200.535156 162.265625 C 200.667969 162.394531 200.800781 162.523438 200.933594 162.652344 C 201.066406 162.78125 201.195312 162.914062 201.328125 163.042969 C 201.394531 163.101562 201.457031 163.164062 201.515625 163.230469 C 201.542969 163.257812 201.566406 163.28125 201.589844 163.304688 C 201.613281 163.328125 201.648438 163.339844 201.6875 163.347656 C 201.71875 163.355469 201.746094 163.351562 201.777344 163.332031 C 201.804688 163.316406 201.828125 163.296875 201.84375 163.289062 C 201.898438 163.25 201.953125 163.210938 202.007812 163.171875 C 202.0625 163.132812 202.117188 163.097656 202.171875 163.058594 C 202.394531 162.902344 202.613281 162.75 202.832031 162.59375 C 203.050781 162.433594 203.265625 162.28125 203.492188 162.121094 L 203.773438 161.925781 C 203.796875 161.910156 203.816406 161.894531 203.839844 161.878906 C 203.859375 161.863281 203.878906 161.84375 203.902344 161.832031 C 203.921875 161.816406 203.945312 161.804688 203.980469 161.789062 C 204.011719 161.777344 204.039062 161.78125 204.058594 161.808594 Z M 202.792969 165.988281 L 202.945312 166.023438 C 203 166.042969 203.054688 166.0625 203.105469 166.078125 C 203.160156 166.09375 203.210938 166.117188 203.257812 166.140625 C 203.285156 166.160156 203.316406 166.171875 203.34375 166.1875 C 203.371094 166.195312 203.398438 166.210938 203.421875 166.230469 C 203.742188 166.433594 203.964844 166.730469 204.089844 167.121094 C 204.105469 167.160156 204.117188 167.199219 204.125 167.242188 C 204.132812 167.28125 204.140625 167.324219 204.148438 167.367188 L 204.15625 167.414062 L 204.164062 167.472656 C 204.164062 167.496094 204.164062 167.519531 204.167969 167.546875 C 204.167969 167.570312 204.171875 167.59375 204.175781 167.621094 L 204.175781 167.707031 C 204.175781 167.742188 204.175781 167.777344 204.175781 167.808594 C 204.175781 167.84375 204.171875 167.875 204.164062 167.90625 C 204.160156 167.914062 204.160156 167.933594 204.160156 167.960938 C 204.15625 167.984375 204.148438 168.011719 204.148438 168.035156 C 204.144531 168.0625 204.140625 168.089844 204.136719 168.121094 C 204.125 168.15625 204.117188 168.195312 204.109375 168.226562 C 204.101562 168.265625 204.089844 168.300781 204.082031 168.335938 C 204.066406 168.371094 204.058594 168.402344 204.042969 168.4375 C 204.03125 168.472656 204.015625 168.5 204.003906 168.535156 C 203.90625 168.753906 203.777344 168.941406 203.613281 169.097656 C 203.453125 169.25 203.261719 169.375 203.039062 169.472656 C 202.984375 169.496094 202.929688 169.511719 202.875 169.527344 C 202.816406 169.542969 202.761719 169.558594 202.699219 169.578125 L 202.652344 169.589844 L 202.613281 169.59375 C 202.578125 169.601562 202.542969 169.605469 202.507812 169.609375 C 202.46875 169.613281 202.433594 169.621094 202.402344 169.625 L 202.351562 169.632812 L 202.3125 169.640625 L 202.203125 169.640625 C 202.1875 169.644531 202.160156 169.652344 202.121094 169.652344 C 202.085938 169.652344 202.058594 169.644531 202.039062 169.640625 L 202.003906 169.632812 L 201.972656 169.640625 L 201.921875 169.640625 C 201.894531 169.632812 201.863281 169.625 201.828125 169.625 C 201.792969 169.621094 201.761719 169.621094 201.726562 169.617188 C 201.699219 169.609375 201.667969 169.605469 201.640625 169.601562 C 201.613281 169.59375 201.585938 169.589844 201.554688 169.582031 C 201.5 169.566406 201.453125 169.554688 201.402344 169.546875 C 201.351562 169.535156 201.304688 169.519531 201.257812 169.5 C 201.210938 169.480469 201.164062 169.460938 201.117188 169.441406 C 201.066406 169.421875 201.023438 169.398438 200.980469 169.371094 C 200.878906 169.3125 200.785156 169.253906 200.703125 169.1875 C 200.675781 169.167969 200.65625 169.148438 200.632812 169.128906 C 200.609375 169.105469 200.589844 169.082031 200.5625 169.058594 C 200.472656 168.96875 200.394531 168.871094 200.328125 168.769531 C 200.265625 168.667969 200.207031 168.550781 200.152344 168.421875 C 200.132812 168.375 200.117188 168.328125 200.105469 168.28125 C 200.09375 168.234375 200.082031 168.183594 200.070312 168.132812 C 200.0625 168.109375 200.058594 168.085938 200.058594 168.0625 C 200.058594 168.042969 200.054688 168.023438 200.046875 168.003906 C 200.042969 167.976562 200.042969 167.945312 200.039062 167.917969 C 200.039062 167.886719 200.035156 167.863281 200.03125 167.832031 L 200.03125 167.777344 C 200.023438 167.382812 200.089844 167.066406 200.230469 166.8125 C 200.371094 166.5625 200.558594 166.359375 200.792969 166.210938 C 200.855469 166.171875 200.921875 166.140625 200.984375 166.113281 C 201.050781 166.085938 201.121094 166.0625 201.199219 166.039062 C 201.222656 166.03125 201.253906 166.027344 201.289062 166.015625 C 201.324219 166.011719 201.351562 166.011719 201.382812 166.023438 C 201.40625 166.03125 201.417969 166.042969 201.425781 166.066406 C 201.429688 166.085938 201.4375 166.109375 201.445312 166.136719 L 201.445312 166.179688 C 201.453125 166.203125 201.453125 166.230469 201.453125 166.253906 C 201.449219 166.285156 201.449219 166.308594 201.449219 166.335938 C 201.449219 166.367188 201.449219 166.410156 201.453125 166.453125 C 201.453125 166.5 201.453125 166.546875 201.453125 166.589844 C 201.449219 166.636719 201.445312 166.675781 201.441406 166.714844 C 201.433594 166.75 201.429688 166.777344 201.414062 166.796875 C 201.390625 166.824219 201.355469 166.851562 201.308594 166.863281 C 201.265625 166.878906 201.226562 166.898438 201.191406 166.917969 C 201.070312 166.988281 200.976562 167.082031 200.90625 167.199219 C 200.855469 167.273438 200.816406 167.363281 200.785156 167.457031 C 200.765625 167.519531 200.753906 167.601562 200.753906 167.695312 C 200.753906 167.789062 200.761719 167.871094 200.78125 167.941406 C 200.789062 167.972656 200.796875 168 200.800781 168.023438 C 200.804688 168.046875 200.816406 168.074219 200.824219 168.097656 C 200.933594 168.347656 201.109375 168.527344 201.359375 168.632812 C 201.40625 168.648438 201.453125 168.667969 201.5 168.683594 C 201.546875 168.699219 201.597656 168.714844 201.652344 168.730469 C 201.675781 168.734375 201.699219 168.738281 201.722656 168.742188 C 201.746094 168.746094 201.769531 168.75 201.792969 168.753906 C 201.816406 168.761719 201.839844 168.761719 201.863281 168.761719 C 201.886719 168.761719 201.910156 168.761719 201.9375 168.769531 C 201.96875 168.777344 202 168.78125 202.03125 168.78125 C 202.0625 168.777344 202.09375 168.777344 202.121094 168.777344 L 202.167969 168.78125 L 202.210938 168.777344 L 202.261719 168.777344 L 202.371094 168.757812 C 202.394531 168.757812 202.425781 168.757812 202.460938 168.75 C 202.503906 168.738281 202.539062 168.734375 202.578125 168.726562 C 202.609375 168.71875 202.644531 168.710938 202.679688 168.699219 C 202.832031 168.644531 202.96875 168.582031 203.078125 168.5 C 203.1875 168.417969 203.277344 168.308594 203.347656 168.175781 C 203.367188 168.136719 203.378906 168.089844 203.394531 168.046875 C 203.40625 168.003906 203.421875 167.957031 203.4375 167.90625 C 203.4375 167.882812 203.441406 167.867188 203.441406 167.851562 L 203.449219 167.796875 L 203.449219 167.753906 C 203.453125 167.738281 203.457031 167.710938 203.453125 167.683594 C 203.453125 167.652344 203.449219 167.628906 203.449219 167.609375 C 203.449219 167.585938 203.445312 167.570312 203.441406 167.558594 C 203.433594 167.515625 203.425781 167.472656 203.417969 167.433594 C 203.410156 167.394531 203.398438 167.359375 203.378906 167.320312 C 203.34375 167.234375 203.292969 167.160156 203.230469 167.097656 C 203.171875 167.039062 203.101562 166.984375 203.023438 166.9375 C 202.988281 166.914062 202.945312 166.894531 202.898438 166.878906 C 202.855469 166.863281 202.8125 166.851562 202.765625 166.828125 C 202.726562 166.816406 202.6875 166.808594 202.65625 166.796875 C 202.621094 166.789062 202.597656 166.761719 202.578125 166.722656 C 202.570312 166.703125 202.566406 166.675781 202.566406 166.640625 C 202.566406 166.605469 202.566406 166.574219 202.566406 166.546875 L 202.566406 166.207031 C 202.566406 166.171875 202.566406 166.140625 202.566406 166.105469 C 202.566406 166.070312 202.574219 166.039062 202.589844 166.015625 C 202.605469 165.992188 202.636719 165.976562 202.679688 165.976562 C 202.71875 165.972656 202.757812 165.980469 202.792969 165.988281 Z M 204.03125 170.285156 C 204.054688 170.296875 204.078125 170.332031 204.089844 170.382812 C 204.097656 170.410156 204.101562 170.4375 204.097656 170.464844 C 204.09375 170.496094 204.089844 170.527344 204.089844 170.554688 L 204.089844 170.886719 C 204.089844 170.925781 204.089844 170.960938 204.085938 171 C 204.082031 171.03125 204.070312 171.0625 204.050781 171.085938 C 204.035156 171.105469 204.007812 171.113281 203.96875 171.117188 C 203.933594 171.121094 203.894531 171.121094 203.851562 171.121094 L 200.527344 171.121094 C 200.472656 171.121094 200.414062 171.121094 200.34375 171.125 C 200.273438 171.128906 200.222656 171.121094 200.191406 171.101562 C 200.171875 171.085938 200.152344 171.0625 200.136719 171.027344 L 200.132812 171 L 200.128906 170.980469 L 200.128906 170.496094 C 200.128906 170.453125 200.132812 170.414062 200.132812 170.378906 C 200.136719 170.339844 200.148438 170.316406 200.175781 170.296875 C 200.203125 170.277344 200.234375 170.265625 200.277344 170.265625 C 200.316406 170.261719 200.359375 170.261719 200.410156 170.261719 L 203.734375 170.261719 C 203.78125 170.261719 203.839844 170.257812 203.898438 170.257812 C 203.957031 170.257812 204 170.265625 204.03125 170.285156 Z M 200.742188 171.585938 C 200.804688 171.605469 200.839844 171.640625 200.84375 171.695312 C 200.847656 171.75 200.847656 171.820312 200.847656 171.898438 L 200.847656 172.464844 C 200.847656 172.539062 200.851562 172.601562 200.855469 172.65625 C 200.863281 172.707031 200.898438 172.746094 200.960938 172.761719 L 201.011719 172.761719 L 201.0625 172.769531 C 201.082031 172.773438 201.105469 172.773438 201.136719 172.769531 C 201.164062 172.769531 201.1875 172.769531 201.210938 172.769531 L 203.828125 172.769531 C 203.890625 172.769531 203.941406 172.769531 203.984375 172.777344 C 204.023438 172.785156 204.054688 172.804688 204.074219 172.847656 C 204.082031 172.875 204.085938 172.902344 204.085938 172.9375 C 204.085938 172.96875 204.085938 173 204.085938 173.03125 L 204.085938 173.410156 C 204.085938 173.449219 204.082031 173.488281 204.082031 173.523438 C 204.078125 173.558594 204.0625 173.585938 204.042969 173.601562 C 204.011719 173.625 203.972656 173.632812 203.925781 173.632812 C 203.882812 173.632812 203.832031 173.632812 203.785156 173.632812 L 201.210938 173.632812 C 201.183594 173.632812 201.15625 173.632812 201.128906 173.628906 C 201.101562 173.625 201.078125 173.628906 201.054688 173.636719 L 201.003906 173.636719 L 200.960938 173.644531 C 200.898438 173.660156 200.863281 173.699219 200.855469 173.757812 C 200.851562 173.8125 200.847656 173.882812 200.847656 173.960938 L 200.847656 174.476562 C 200.847656 174.519531 200.847656 174.5625 200.851562 174.613281 C 200.851562 174.664062 200.851562 174.703125 200.84375 174.730469 C 200.832031 174.761719 200.816406 174.785156 200.792969 174.800781 C 200.777344 174.8125 200.75 174.816406 200.71875 174.816406 C 200.691406 174.820312 200.660156 174.820312 200.632812 174.820312 L 200.359375 174.820312 C 200.3125 174.820312 200.265625 174.816406 200.230469 174.8125 C 200.195312 174.808594 200.167969 174.789062 200.148438 174.761719 C 200.140625 174.75 200.132812 174.730469 200.125 174.699219 L 200.125 171.878906 C 200.125 171.832031 200.125 171.785156 200.128906 171.738281 C 200.128906 171.691406 200.140625 171.652344 200.160156 171.625 L 200.195312 171.597656 L 200.246094 171.585938 L 200.277344 171.585938 L 200.324219 171.578125 L 200.597656 171.578125 C 200.625 171.578125 200.648438 171.578125 200.671875 171.574219 C 200.699219 171.574219 200.71875 171.578125 200.742188 171.585938 Z M 186.414062 174.007812 L 180.953125 166.910156 L 176.085938 167.027344 C 174.867188 167.027344 173.878906 166.039062 173.875 164.820312 L 173.875 164.804688 C 173.878906 163.582031 174.867188 162.597656 176.085938 162.597656 L 180.953125 162.714844 L 186.414062 155.613281 L 187.894531 155.613281 L 184.699219 162.863281 L 192.558594 163.496094 L 195.0625 160.234375 L 195.550781 160.421875 L 193.835938 164.8125 L 195.550781 169.203125 L 195.0625 169.390625 L 192.558594 166.015625 L 184.699219 166.761719 L 187.894531 174.007812 Z M 171.582031 178.308594 C 171.789062 178.308594 171.953125 178.476562 171.953125 178.679688 C 171.953125 178.886719 171.789062 179.054688 171.582031 179.054688 L 170.070312 179.054688 C 169.867188 179.054688 169.699219 178.886719 169.699219 178.679688 C 169.699219 178.476562 169.867188 178.308594 170.070312 178.308594 Z M 174.609375 178.308594 C 174.816406 178.308594 174.980469 178.476562 174.980469 178.679688 C 174.980469 178.886719 174.816406 179.054688 174.609375 179.054688 L 173.097656 179.054688 C 172.890625 179.054688 172.726562 178.886719 172.726562 178.679688 C 172.726562 178.476562 172.890625 178.308594 173.097656 178.308594 Z M 177.636719 178.308594 C 177.84375 178.308594 178.007812 178.476562 178.007812 178.679688 C 178.007812 178.886719 177.84375 179.054688 177.636719 179.054688 L 176.125 179.054688 C 175.917969 179.054688 175.753906 178.886719 175.753906 178.679688 C 175.753906 178.476562 175.917969 178.308594 176.125 178.308594 Z M 180.664062 178.308594 C 180.867188 178.308594 181.035156 178.476562 181.035156 178.679688 C 181.035156 178.886719 180.867188 179.054688 180.664062 179.054688 L 179.148438 179.054688 C 178.945312 179.054688 178.78125 178.886719 178.78125 178.679688 C 178.78125 178.476562 178.945312 178.308594 179.148438 178.308594 Z M 183.691406 178.308594 C 183.894531 178.308594 184.0625 178.476562 184.0625 178.679688 C 184.0625 178.886719 183.894531 179.054688 183.691406 179.054688 L 182.175781 179.054688 C 181.972656 179.054688 181.804688 178.886719 181.804688 178.679688 C 181.804688 178.476562 181.972656 178.308594 182.175781 178.308594 Z M 186.71875 178.308594 C 186.921875 178.308594 187.085938 178.476562 187.085938 178.679688 C 187.085938 178.886719 186.921875 179.054688 186.71875 179.054688 L 185.203125 179.054688 C 185 179.054688 184.832031 178.886719 184.832031 178.679688 C 184.832031 178.476562 185 178.308594 185.203125 178.308594 Z M 189.742188 178.308594 C 189.949219 178.308594 190.113281 178.476562 190.113281 178.679688 C 190.113281 178.886719 189.949219 179.054688 189.742188 179.054688 L 188.230469 179.054688 C 188.023438 179.054688 187.859375 178.886719 187.859375 178.679688 C 187.859375 178.476562 188.023438 178.308594 188.230469 178.308594 Z M 192.769531 178.308594 C 192.976562 178.308594 193.140625 178.476562 193.140625 178.679688 C 193.140625 178.886719 192.976562 179.054688 192.769531 179.054688 L 191.257812 179.054688 C 191.050781 179.054688 190.886719 178.886719 190.886719 178.679688 C 190.886719 178.476562 191.050781 178.308594 191.257812 178.308594 Z M 195.796875 178.308594 C 196.003906 178.308594 196.167969 178.476562 196.167969 178.679688 C 196.167969 178.886719 196.003906 179.054688 195.796875 179.054688 L 194.285156 179.054688 C 194.078125 179.054688 193.914062 178.886719 193.914062 178.679688 C 193.914062 178.476562 194.078125 178.308594 194.285156 178.308594 Z M 198.824219 178.308594 C 199.027344 178.308594 199.195312 178.476562 199.195312 178.679688 C 199.195312 178.886719 199.027344 179.054688 198.824219 179.054688 L 197.308594 179.054688 C 197.105469 179.054688 196.941406 178.886719 196.941406 178.679688 C 196.941406 178.476562 197.105469 178.308594 197.308594 178.308594 Z M 201.847656 178.308594 C 202.054688 178.308594 202.21875 178.476562 202.21875 178.679688 C 202.21875 178.886719 202.054688 179.054688 201.847656 179.054688 L 200.335938 179.054688 C 200.132812 179.054688 199.964844 178.886719 199.964844 178.679688 C 199.964844 178.476562 200.132812 178.308594 200.335938 178.308594 Z M 204.875 178.308594 C 205.082031 178.308594 205.246094 178.476562 205.246094 178.679688 C 205.246094 178.886719 205.082031 179.054688 204.875 179.054688 L 203.363281 179.054688 C 203.160156 179.054688 202.992188 178.886719 202.992188 178.679688 C 202.992188 178.476562 203.160156 178.308594 203.363281 178.308594 Z M 198.476562 184.046875 L 196.667969 188.152344 L 201.117188 188.511719 L 202.539062 186.664062 L 202.816406 186.769531 L 201.839844 189.253906 L 202.816406 191.742188 L 202.539062 191.847656 L 201.117188 189.941406 L 196.667969 190.359375 L 198.476562 194.464844 L 197.636719 194.464844 L 194.542969 190.445312 L 191.789062 190.511719 C 191.097656 190.511719 190.535156 189.953125 190.535156 189.261719 L 190.53125 189.257812 L 190.53125 189.253906 L 190.535156 189.25 C 190.535156 188.5625 191.097656 188 191.789062 188 L 194.542969 188.066406 L 197.636719 184.046875 Z M 194.265625 199.175781 L 194.265625 216.359375 L 192.332031 216.359375 L 192.332031 199.175781 Z M 175.699219 216.707031 C 175.703125 216.789062 175.699219 216.847656 175.6875 216.898438 C 175.671875 216.941406 175.644531 216.976562 175.609375 217 C 175.578125 217.015625 175.542969 217.03125 175.496094 217.03125 C 175.449219 217.035156 175.402344 217.035156 175.355469 217.035156 L 174.929688 217.035156 C 174.855469 217.035156 174.789062 217.03125 174.730469 217.023438 C 174.671875 217.015625 174.628906 216.988281 174.601562 216.9375 C 174.589844 216.921875 174.578125 216.890625 174.566406 216.84375 L 174.566406 212.433594 C 174.566406 212.359375 174.566406 212.285156 174.570312 212.214844 C 174.570312 212.140625 174.589844 212.082031 174.617188 212.035156 C 174.628906 212.015625 174.648438 212.003906 174.675781 211.996094 C 174.699219 211.984375 174.726562 211.980469 174.757812 211.976562 L 174.800781 211.976562 C 174.824219 211.96875 174.847656 211.96875 174.878906 211.96875 C 174.90625 211.96875 174.9375 211.96875 174.964844 211.96875 L 175.304688 211.96875 C 175.34375 211.96875 175.382812 211.964844 175.421875 211.960938 C 175.457031 211.960938 175.496094 211.960938 175.53125 211.976562 C 175.628906 212.003906 175.683594 212.058594 175.6875 212.148438 C 175.691406 212.234375 175.695312 212.339844 175.695312 212.460938 L 175.695312 213.347656 C 175.695312 213.464844 175.699219 213.5625 175.707031 213.648438 C 175.71875 213.730469 175.769531 213.789062 175.871094 213.820312 C 175.898438 213.824219 175.925781 213.824219 175.949219 213.820312 C 175.972656 213.8125 175.996094 213.816406 176.027344 213.824219 C 176.0625 213.832031 176.101562 213.835938 176.144531 213.832031 C 176.1875 213.828125 176.226562 213.824219 176.261719 213.824219 L 180.355469 213.824219 C 180.449219 213.824219 180.53125 213.832031 180.597656 213.839844 C 180.664062 213.847656 180.710938 213.886719 180.742188 213.949219 C 180.753906 213.988281 180.757812 214.035156 180.757812 214.089844 C 180.757812 214.140625 180.757812 214.1875 180.757812 214.234375 L 180.757812 214.828125 C 180.757812 214.890625 180.753906 214.949219 180.75 215.003906 C 180.742188 215.0625 180.722656 215.101562 180.6875 215.128906 C 180.640625 215.160156 180.582031 215.171875 180.511719 215.171875 C 180.4375 215.171875 180.363281 215.171875 180.285156 215.171875 L 176.261719 215.171875 C 176.21875 215.171875 176.179688 215.171875 176.136719 215.171875 C 176.09375 215.167969 176.054688 215.171875 176.019531 215.183594 C 175.988281 215.1875 175.960938 215.1875 175.9375 215.183594 C 175.914062 215.175781 175.894531 215.179688 175.871094 215.191406 C 175.769531 215.222656 175.71875 215.28125 175.707031 215.371094 C 175.699219 215.457031 175.695312 215.5625 175.695312 215.6875 L 175.695312 216.496094 C 175.695312 216.558594 175.695312 216.632812 175.699219 216.707031 Z M 174.671875 211.214844 C 174.636719 211.195312 174.605469 211.15625 174.582031 211.105469 L 174.578125 211.054688 L 174.574219 211.019531 L 174.574219 210.269531 C 174.574219 210.207031 174.578125 210.144531 174.578125 210.085938 C 174.582031 210.027344 174.601562 209.984375 174.644531 209.957031 C 174.683594 209.929688 174.734375 209.914062 174.800781 209.90625 C 174.863281 209.90625 174.933594 209.90625 175.007812 209.90625 L 180.210938 209.90625 C 180.285156 209.90625 180.367188 209.902344 180.460938 209.902344 C 180.554688 209.898438 180.625 209.914062 180.671875 209.941406 C 180.710938 209.960938 180.742188 210.015625 180.765625 210.097656 C 180.777344 210.136719 180.78125 210.179688 180.777344 210.226562 C 180.769531 210.269531 180.765625 210.320312 180.765625 210.363281 L 180.765625 210.878906 C 180.765625 210.941406 180.761719 211 180.757812 211.054688 C 180.753906 211.109375 180.734375 211.15625 180.707031 211.191406 C 180.675781 211.222656 180.632812 211.238281 180.574219 211.246094 C 180.515625 211.25 180.457031 211.253906 180.394531 211.253906 L 175.191406 211.253906 C 175.109375 211.253906 175.015625 211.253906 174.90625 211.257812 C 174.792969 211.261719 174.714844 211.246094 174.671875 211.214844 Z M 177.558594 208.929688 C 177.539062 208.921875 177.519531 208.921875 177.5 208.925781 L 177.453125 208.929688 L 177.375 208.929688 C 177.328125 208.917969 177.28125 208.910156 177.226562 208.910156 C 177.175781 208.90625 177.121094 208.902344 177.070312 208.894531 C 177.023438 208.886719 176.976562 208.875 176.933594 208.867188 C 176.890625 208.863281 176.847656 208.855469 176.800781 208.84375 C 176.71875 208.820312 176.640625 208.800781 176.5625 208.78125 C 176.484375 208.765625 176.410156 208.742188 176.339844 208.710938 C 176.265625 208.683594 176.1875 208.65625 176.113281 208.621094 C 176.039062 208.589844 175.96875 208.554688 175.90625 208.511719 C 175.742188 208.421875 175.597656 208.324219 175.46875 208.226562 C 175.429688 208.199219 175.390625 208.167969 175.355469 208.128906 C 175.324219 208.097656 175.289062 208.058594 175.253906 208.027344 C 175.105469 207.882812 174.984375 207.730469 174.882812 207.570312 C 174.78125 207.410156 174.6875 207.230469 174.609375 207.027344 C 174.578125 206.957031 174.554688 206.886719 174.535156 206.808594 C 174.515625 206.734375 174.496094 206.65625 174.476562 206.574219 C 174.464844 206.539062 174.460938 206.503906 174.460938 206.46875 C 174.460938 206.433594 174.453125 206.402344 174.445312 206.375 C 174.4375 206.328125 174.433594 206.28125 174.429688 206.242188 C 174.425781 206.195312 174.421875 206.152344 174.417969 206.105469 L 174.417969 206.015625 C 174.40625 205.410156 174.511719 204.90625 174.730469 204.511719 C 174.949219 204.121094 175.246094 203.804688 175.609375 203.574219 C 175.707031 203.507812 175.808594 203.457031 175.910156 203.417969 C 176.011719 203.375 176.121094 203.339844 176.242188 203.304688 C 176.285156 203.292969 176.332031 203.28125 176.382812 203.269531 C 176.433594 203.257812 176.484375 203.261719 176.53125 203.277344 C 176.5625 203.289062 176.585938 203.308594 176.59375 203.34375 C 176.605469 203.375 176.613281 203.410156 176.628906 203.453125 L 176.628906 203.523438 C 176.640625 203.558594 176.640625 203.59375 176.640625 203.640625 C 176.636719 203.683594 176.632812 203.726562 176.632812 203.765625 C 176.632812 203.820312 176.636719 203.878906 176.640625 203.953125 C 176.640625 204.023438 176.640625 204.097656 176.640625 204.164062 C 176.636719 204.234375 176.628906 204.300781 176.621094 204.355469 C 176.613281 204.414062 176.601562 204.457031 176.582031 204.488281 C 176.542969 204.535156 176.488281 204.570312 176.417969 204.59375 C 176.347656 204.617188 176.285156 204.644531 176.234375 204.679688 C 176.042969 204.789062 175.894531 204.933594 175.78125 205.113281 C 175.707031 205.234375 175.644531 205.371094 175.601562 205.523438 C 175.566406 205.617188 175.546875 205.746094 175.546875 205.890625 C 175.546875 206.039062 175.5625 206.167969 175.589844 206.277344 C 175.601562 206.324219 175.613281 206.367188 175.621094 206.402344 C 175.628906 206.441406 175.644531 206.480469 175.660156 206.523438 C 175.828125 206.917969 176.109375 207.195312 176.496094 207.355469 C 176.5625 207.386719 176.640625 207.410156 176.714844 207.433594 C 176.789062 207.457031 176.867188 207.484375 176.949219 207.515625 C 176.988281 207.519531 177.027344 207.527344 177.0625 207.53125 C 177.097656 207.539062 177.132812 207.542969 177.175781 207.550781 C 177.210938 207.558594 177.246094 207.566406 177.28125 207.5625 C 177.320312 207.558594 177.359375 207.566406 177.398438 207.574219 C 177.445312 207.589844 177.496094 207.589844 177.542969 207.589844 C 177.59375 207.585938 177.640625 207.582031 177.6875 207.582031 C 177.710938 207.582031 177.734375 207.585938 177.757812 207.589844 C 177.78125 207.589844 177.804688 207.589844 177.828125 207.582031 L 177.90625 207.582031 C 177.933594 207.570312 177.960938 207.566406 177.992188 207.570312 C 178.019531 207.574219 178.050781 207.570312 178.078125 207.558594 C 178.113281 207.558594 178.160156 207.550781 178.21875 207.539062 C 178.28125 207.527344 178.339844 207.515625 178.394531 207.503906 C 178.449219 207.496094 178.503906 207.480469 178.558594 207.460938 C 178.800781 207.378906 179.007812 207.277344 179.179688 207.148438 C 179.351562 207.019531 179.492188 206.851562 179.601562 206.644531 C 179.628906 206.582031 179.652344 206.511719 179.675781 206.445312 C 179.695312 206.375 179.71875 206.300781 179.742188 206.214844 C 179.746094 206.191406 179.75 206.160156 179.753906 206.132812 C 179.753906 206.109375 179.757812 206.082031 179.757812 206.050781 L 179.757812 205.980469 C 179.769531 205.953125 179.773438 205.917969 179.769531 205.867188 C 179.769531 205.824219 179.765625 205.785156 179.757812 205.757812 C 179.757812 205.722656 179.753906 205.695312 179.75 205.675781 C 179.738281 205.609375 179.726562 205.546875 179.714844 205.484375 C 179.703125 205.421875 179.683594 205.363281 179.652344 205.304688 C 179.59375 205.171875 179.515625 205.054688 179.421875 204.960938 C 179.328125 204.867188 179.21875 204.78125 179.097656 204.707031 C 179.039062 204.671875 178.976562 204.640625 178.90625 204.621094 C 178.835938 204.59375 178.765625 204.570312 178.695312 204.539062 C 178.632812 204.523438 178.574219 204.507812 178.519531 204.488281 C 178.46875 204.472656 178.429688 204.433594 178.402344 204.375 C 178.390625 204.339844 178.382812 204.296875 178.382812 204.242188 C 178.382812 204.191406 178.382812 204.140625 178.382812 204.097656 L 178.382812 203.566406 C 178.382812 203.515625 178.382812 203.457031 178.382812 203.402344 C 178.382812 203.347656 178.394531 203.304688 178.417969 203.269531 C 178.449219 203.230469 178.492188 203.207031 178.558594 203.203125 C 178.621094 203.203125 178.683594 203.207031 178.742188 203.226562 L 178.976562 203.277344 C 179.0625 203.308594 179.144531 203.332031 179.226562 203.359375 C 179.308594 203.386719 179.386719 203.421875 179.460938 203.460938 C 179.507812 203.488281 179.554688 203.515625 179.597656 203.53125 C 179.640625 203.546875 179.683594 203.570312 179.722656 203.601562 C 180.222656 203.917969 180.570312 204.382812 180.765625 204.992188 C 180.789062 205.054688 180.804688 205.121094 180.816406 205.183594 C 180.828125 205.246094 180.839844 205.308594 180.851562 205.375 C 180.863281 205.402344 180.871094 205.429688 180.867188 205.457031 C 180.863281 205.484375 180.867188 205.507812 180.878906 205.539062 C 180.878906 205.582031 180.882812 205.617188 180.882812 205.65625 C 180.886719 205.695312 180.890625 205.730469 180.894531 205.773438 L 180.894531 205.914062 C 180.894531 205.96875 180.894531 206.015625 180.894531 206.066406 C 180.894531 206.121094 180.890625 206.171875 180.878906 206.214844 C 180.875 206.234375 180.871094 206.265625 180.871094 206.304688 C 180.863281 206.34375 180.859375 206.382812 180.851562 206.425781 C 180.847656 206.46875 180.839844 206.507812 180.835938 206.558594 C 180.816406 206.613281 180.804688 206.671875 180.792969 206.726562 C 180.78125 206.78125 180.765625 206.835938 180.75 206.894531 C 180.730469 206.949219 180.710938 207 180.691406 207.054688 C 180.671875 207.105469 180.648438 207.152344 180.628906 207.199219 C 180.476562 207.550781 180.273438 207.84375 180.023438 208.082031 C 179.769531 208.324219 179.46875 208.519531 179.121094 208.667969 C 179.035156 208.703125 178.949219 208.734375 178.863281 208.757812 C 178.773438 208.78125 178.683594 208.804688 178.589844 208.835938 C 178.5625 208.847656 178.539062 208.851562 178.519531 208.851562 C 178.496094 208.851562 178.476562 208.855469 178.453125 208.859375 C 178.402344 208.871094 178.34375 208.882812 178.289062 208.886719 C 178.230469 208.894531 178.171875 208.902344 178.121094 208.910156 C 178.09375 208.921875 178.066406 208.929688 178.050781 208.925781 C 178.027344 208.921875 178.003906 208.921875 177.984375 208.929688 L 177.816406 208.929688 C 177.789062 208.941406 177.746094 208.949219 177.6875 208.949219 C 177.628906 208.949219 177.585938 208.941406 177.558594 208.929688 Z M 174.660156 202.199219 C 174.621094 202.167969 174.589844 202.117188 174.574219 202.0625 L 174.566406 201.992188 L 174.566406 201.320312 C 174.566406 201.210938 174.570312 201.117188 174.578125 201.042969 C 174.585938 200.96875 174.636719 200.917969 174.730469 200.886719 C 174.757812 200.882812 174.789062 200.878906 174.820312 200.878906 C 174.855469 200.878906 174.886719 200.878906 174.921875 200.878906 L 176.589844 200.878906 C 176.644531 200.878906 176.695312 200.878906 176.75 200.878906 C 176.800781 200.878906 176.847656 200.867188 176.886719 200.851562 L 176.921875 200.820312 L 176.941406 200.78125 C 176.949219 200.742188 176.941406 200.703125 176.90625 200.664062 C 176.871094 200.625 176.84375 200.601562 176.828125 200.582031 C 176.78125 200.535156 176.734375 200.488281 176.6875 200.445312 C 176.640625 200.394531 176.589844 200.351562 176.539062 200.3125 C 176.527344 200.296875 176.507812 200.273438 176.476562 200.246094 C 176.457031 200.222656 176.429688 200.199219 176.402344 200.171875 C 176.378906 200.152344 176.351562 200.128906 176.324219 200.113281 L 176.296875 200.082031 L 176.269531 200.042969 C 176.222656 200.011719 176.183594 199.980469 176.152344 199.9375 C 176.121094 199.898438 176.085938 199.863281 176.042969 199.835938 C 175.996094 199.800781 175.960938 199.769531 175.929688 199.738281 L 175.894531 199.695312 C 175.804688 199.625 175.71875 199.546875 175.644531 199.460938 C 175.570312 199.375 175.484375 199.296875 175.390625 199.226562 L 175.296875 199.128906 C 175.277344 199.113281 175.257812 199.097656 175.234375 199.078125 L 175.210938 199.0625 L 175.191406 199.035156 C 175.167969 199 175.136719 198.972656 175.097656 198.957031 L 175.027344 198.871094 C 174.996094 198.851562 174.96875 198.832031 174.949219 198.808594 C 174.925781 198.785156 174.898438 198.761719 174.867188 198.738281 L 174.84375 198.707031 L 174.816406 198.679688 C 174.757812 198.636719 174.707031 198.589844 174.664062 198.539062 C 174.621094 198.488281 174.589844 198.421875 174.574219 198.339844 C 174.5625 198.292969 174.558594 198.242188 174.5625 198.175781 C 174.566406 198.117188 174.566406 198.0625 174.566406 198.007812 L 174.566406 197.339844 C 174.566406 197.277344 174.566406 197.207031 174.5625 197.136719 C 174.558594 197.0625 174.570312 197.003906 174.601562 196.964844 C 174.628906 196.929688 174.664062 196.921875 174.699219 196.941406 C 174.738281 196.957031 174.769531 196.972656 174.792969 196.980469 C 174.820312 197.011719 174.847656 197.039062 174.875 197.070312 C 174.898438 197.097656 174.925781 197.128906 174.957031 197.15625 C 175.003906 197.199219 175.046875 197.234375 175.085938 197.273438 C 175.128906 197.308594 175.167969 197.351562 175.207031 197.398438 C 175.410156 197.601562 175.617188 197.808594 175.828125 198.007812 C 176.035156 198.210938 176.242188 198.414062 176.445312 198.617188 C 176.546875 198.710938 176.648438 198.808594 176.738281 198.914062 C 176.78125 198.957031 176.820312 198.992188 176.855469 199.027344 C 176.894531 199.0625 176.945312 199.085938 177.007812 199.097656 C 177.054688 199.105469 177.101562 199.097656 177.144531 199.070312 C 177.1875 199.042969 177.222656 199.019531 177.253906 199 C 177.339844 198.941406 177.425781 198.882812 177.507812 198.824219 C 177.59375 198.761719 177.679688 198.703125 177.765625 198.644531 C 178.113281 198.402344 178.457031 198.15625 178.796875 197.910156 C 179.136719 197.667969 179.476562 197.425781 179.828125 197.183594 L 180.269531 196.867188 C 180.304688 196.847656 180.339844 196.820312 180.371094 196.796875 C 180.402344 196.769531 180.433594 196.742188 180.472656 196.722656 C 180.5 196.703125 180.539062 196.683594 180.589844 196.664062 C 180.644531 196.640625 180.683594 196.644531 180.714844 196.6875 C 180.742188 196.726562 180.757812 196.785156 180.757812 196.859375 C 180.757812 196.9375 180.757812 197.003906 180.757812 197.070312 L 180.757812 197.757812 C 180.757812 197.816406 180.761719 197.882812 180.761719 197.949219 C 180.765625 198.011719 180.761719 198.070312 180.75 198.121094 C 180.726562 198.183594 180.691406 198.234375 180.648438 198.273438 C 180.605469 198.3125 180.558594 198.347656 180.503906 198.382812 C 180.460938 198.417969 180.410156 198.453125 180.363281 198.480469 C 180.3125 198.515625 180.261719 198.546875 180.210938 198.582031 C 179.964844 198.738281 179.726562 198.898438 179.496094 199.0625 C 179.265625 199.222656 179.027344 199.382812 178.785156 199.546875 C 178.683594 199.613281 178.589844 199.675781 178.496094 199.734375 C 178.402344 199.796875 178.308594 199.859375 178.21875 199.921875 C 178.1875 199.945312 178.15625 199.972656 178.117188 200.007812 C 178.082031 200.042969 178.066406 200.089844 178.078125 200.148438 C 178.097656 200.207031 178.136719 200.265625 178.195312 200.324219 C 178.257812 200.378906 178.308594 200.429688 178.347656 200.472656 C 178.378906 200.5 178.40625 200.527344 178.441406 200.554688 C 178.472656 200.585938 178.503906 200.613281 178.53125 200.644531 C 178.570312 200.683594 178.609375 200.722656 178.648438 200.757812 C 178.6875 200.789062 178.730469 200.820312 178.785156 200.84375 C 178.820312 200.859375 178.855469 200.871094 178.894531 200.875 C 178.9375 200.878906 178.980469 200.878906 179.027344 200.878906 L 179.140625 200.878906 C 179.167969 200.882812 179.203125 200.886719 179.238281 200.882812 C 179.277344 200.878906 179.3125 200.878906 179.339844 200.878906 L 180.367188 200.878906 C 180.429688 200.878906 180.492188 200.878906 180.550781 200.882812 C 180.605469 200.886719 180.652344 200.902344 180.6875 200.929688 C 180.722656 200.960938 180.742188 201.003906 180.75 201.058594 C 180.753906 201.117188 180.757812 201.179688 180.757812 201.242188 L 180.757812 201.835938 C 180.757812 201.902344 180.757812 201.960938 180.753906 202.015625 C 180.75 202.074219 180.734375 202.125 180.707031 202.167969 C 180.675781 202.207031 180.621094 202.226562 180.542969 202.226562 C 180.46875 202.226562 180.390625 202.226562 180.3125 202.226562 L 175.027344 202.226562 C 174.960938 202.226562 174.894531 202.226562 174.824219 202.230469 C 174.757812 202.234375 174.699219 202.222656 174.660156 202.199219 Z M 180.367188 195.957031 L 174.9375 195.957031 C 174.886719 195.957031 174.835938 195.957031 174.78125 195.957031 C 174.730469 195.957031 174.6875 195.945312 174.660156 195.921875 C 174.621094 195.898438 174.589844 195.855469 174.574219 195.792969 L 174.566406 195.722656 L 174.566406 191.714844 C 174.566406 191.644531 174.566406 191.578125 174.574219 191.515625 C 174.578125 191.449219 174.601562 191.402344 174.644531 191.371094 C 174.660156 191.363281 174.683594 191.355469 174.703125 191.351562 C 174.726562 191.347656 174.75 191.339844 174.773438 191.332031 L 174.867188 191.332031 C 174.910156 191.324219 174.953125 191.320312 175 191.324219 C 175.046875 191.328125 175.089844 191.332031 175.128906 191.332031 C 175.175781 191.332031 175.222656 191.328125 175.265625 191.324219 C 175.308594 191.320312 175.351562 191.324219 175.390625 191.332031 C 175.421875 191.335938 175.464844 191.339844 175.523438 191.339844 C 175.589844 191.355469 175.640625 191.382812 175.660156 191.425781 C 175.683594 191.460938 175.695312 191.503906 175.695312 191.558594 C 175.695312 191.609375 175.695312 191.664062 175.695312 191.71875 L 175.695312 193.894531 C 175.695312 193.945312 175.695312 193.996094 175.691406 194.054688 C 175.6875 194.117188 175.6875 194.175781 175.691406 194.238281 C 175.695312 194.296875 175.699219 194.355469 175.707031 194.410156 C 175.71875 194.460938 175.730469 194.5 175.746094 194.519531 C 175.777344 194.5625 175.820312 194.589844 175.875 194.59375 C 175.929688 194.605469 175.992188 194.609375 176.0625 194.609375 L 176.808594 194.609375 C 176.855469 194.597656 176.894531 194.585938 176.925781 194.574219 C 176.957031 194.5625 176.984375 194.542969 177 194.511719 C 177.023438 194.476562 177.039062 194.4375 177.039062 194.390625 C 177.042969 194.34375 177.042969 194.296875 177.042969 194.242188 L 177.042969 192.277344 C 177.042969 192.238281 177.042969 192.1875 177.039062 192.125 C 177.039062 192.066406 177.039062 192.003906 177.039062 191.949219 C 177.042969 191.886719 177.046875 191.835938 177.054688 191.789062 C 177.058594 191.738281 177.070312 191.699219 177.085938 191.675781 C 177.105469 191.648438 177.140625 191.628906 177.191406 191.617188 C 177.242188 191.605469 177.300781 191.597656 177.359375 191.59375 C 177.421875 191.59375 177.484375 191.59375 177.546875 191.59375 C 177.613281 191.597656 177.667969 191.601562 177.714844 191.601562 C 177.753906 191.601562 177.796875 191.601562 177.835938 191.601562 C 177.875 191.601562 177.910156 191.605469 177.9375 191.617188 C 177.984375 191.628906 178.023438 191.648438 178.054688 191.6875 C 178.070312 191.714844 178.082031 191.757812 178.089844 191.804688 C 178.09375 191.855469 178.097656 191.910156 178.097656 191.96875 C 178.097656 192.03125 178.09375 192.089844 178.09375 192.152344 C 178.089844 192.210938 178.089844 192.265625 178.089844 192.304688 L 178.089844 194 C 178.089844 194.066406 178.085938 194.136719 178.082031 194.199219 C 178.082031 194.265625 178.082031 194.320312 178.09375 194.378906 C 178.097656 194.433594 178.117188 194.480469 178.144531 194.515625 C 178.167969 194.554688 178.210938 194.582031 178.261719 194.601562 C 178.292969 194.605469 178.320312 194.609375 178.351562 194.609375 C 178.386719 194.609375 178.414062 194.609375 178.445312 194.609375 L 179.261719 194.609375 C 179.332031 194.609375 179.394531 194.605469 179.449219 194.59375 C 179.503906 194.589844 179.546875 194.5625 179.574219 194.519531 C 179.589844 194.503906 179.601562 194.480469 179.605469 194.457031 C 179.609375 194.429688 179.617188 194.402344 179.628906 194.375 L 179.628906 194.285156 C 179.632812 194.257812 179.632812 194.226562 179.632812 194.191406 C 179.628906 194.15625 179.628906 194.121094 179.628906 194.097656 L 179.628906 191.632812 C 179.628906 191.589844 179.628906 191.542969 179.628906 191.5 C 179.628906 191.457031 179.632812 191.417969 179.652344 191.382812 C 179.671875 191.335938 179.703125 191.304688 179.75 191.285156 C 179.777344 191.277344 179.8125 191.265625 179.851562 191.265625 C 179.894531 191.261719 179.9375 191.261719 179.984375 191.261719 L 180.382812 191.261719 C 180.453125 191.261719 180.519531 191.261719 180.578125 191.269531 C 180.640625 191.277344 180.683594 191.300781 180.714844 191.347656 C 180.742188 191.382812 180.757812 191.425781 180.757812 191.484375 C 180.757812 191.539062 180.757812 191.59375 180.757812 191.660156 L 180.757812 195.574219 C 180.757812 195.65625 180.753906 195.726562 180.746094 195.789062 C 180.734375 195.847656 180.707031 195.890625 180.660156 195.921875 C 180.628906 195.945312 180.582031 195.957031 180.527344 195.957031 C 180.472656 195.957031 180.417969 195.957031 180.367188 195.957031 Z M 188.347656 192.578125 L 190.285156 192.578125 L 190.285156 216.359375 L 188.347656 216.359375 Z M 186.300781 216.359375 L 184.363281 216.359375 L 184.363281 186.769531 L 186.300781 186.769531 Z M 174.929688 190.800781 C 174.855469 190.800781 174.789062 190.792969 174.730469 190.785156 C 174.671875 190.777344 174.628906 190.75 174.601562 190.703125 C 174.589844 190.6875 174.578125 190.65625 174.566406 190.609375 L 174.566406 186.199219 C 174.566406 186.125 174.566406 186.050781 174.570312 185.976562 C 174.570312 185.90625 174.589844 185.847656 174.617188 185.800781 C 174.628906 185.78125 174.648438 185.769531 174.675781 185.761719 C 174.699219 185.75 174.726562 185.746094 174.757812 185.738281 L 174.800781 185.738281 C 174.824219 185.730469 174.847656 185.730469 174.878906 185.730469 C 174.90625 185.730469 174.9375 185.730469 174.964844 185.730469 L 175.304688 185.730469 C 175.34375 185.730469 175.382812 185.730469 175.421875 185.726562 C 175.457031 185.722656 175.496094 185.726562 175.53125 185.738281 C 175.628906 185.769531 175.683594 185.824219 175.6875 185.910156 C 175.691406 186 175.695312 186.105469 175.695312 186.226562 L 175.695312 187.113281 C 175.695312 187.230469 175.699219 187.328125 175.707031 187.414062 C 175.71875 187.496094 175.769531 187.554688 175.871094 187.582031 C 175.898438 187.585938 175.925781 187.585938 175.949219 187.582031 C 175.972656 187.578125 175.996094 187.582031 176.027344 187.589844 C 176.0625 187.597656 176.101562 187.597656 176.144531 187.59375 C 176.1875 187.59375 176.226562 187.589844 176.261719 187.589844 L 180.355469 187.589844 C 180.449219 187.589844 180.53125 187.59375 180.597656 187.605469 C 180.664062 187.613281 180.710938 187.648438 180.742188 187.714844 C 180.753906 187.753906 180.757812 187.800781 180.757812 187.851562 C 180.757812 187.902344 180.757812 187.953125 180.757812 188 L 180.757812 188.589844 C 180.757812 188.65625 180.753906 188.710938 180.75 188.769531 C 180.742188 188.824219 180.722656 188.867188 180.6875 188.894531 C 180.640625 188.925781 180.582031 188.9375 180.511719 188.9375 C 180.4375 188.9375 180.363281 188.9375 180.285156 188.9375 L 176.261719 188.9375 C 176.21875 188.9375 176.179688 188.9375 176.136719 188.933594 C 176.09375 188.933594 176.054688 188.9375 176.019531 188.949219 C 175.988281 188.953125 175.960938 188.953125 175.9375 188.949219 C 175.914062 188.941406 175.894531 188.941406 175.871094 188.957031 C 175.769531 188.988281 175.71875 189.046875 175.707031 189.136719 C 175.699219 189.222656 175.695312 189.328125 175.695312 189.453125 L 175.695312 190.257812 C 175.695312 190.324219 175.695312 190.398438 175.699219 190.472656 C 175.703125 190.550781 175.699219 190.613281 175.6875 190.664062 C 175.671875 190.707031 175.644531 190.742188 175.609375 190.761719 C 175.578125 190.78125 175.542969 190.792969 175.496094 190.792969 C 175.449219 190.800781 175.402344 190.800781 175.355469 190.800781 Z M 167.65625 155.085938 L 167.65625 178.351562 C 167.707031 178.328125 167.757812 178.308594 167.816406 178.308594 L 168.558594 178.308594 C 168.761719 178.308594 168.929688 178.476562 168.929688 178.679688 C 168.929688 178.886719 168.761719 179.054688 168.558594 179.054688 L 167.816406 179.054688 C 167.757812 179.054688 167.707031 179.035156 167.65625 179.015625 L 167.65625 216.867188 C 167.65625 219.878906 170.097656 222.316406 173.109375 222.316406 L 201.960938 222.316406 C 204.972656 222.316406 207.414062 219.878906 207.414062 216.867188 L 207.414062 178.914062 C 207.34375 179 207.246094 179.054688 207.132812 179.054688 L 206.390625 179.054688 C 206.183594 179.054688 206.019531 178.886719 206.019531 178.679688 C 206.019531 178.476562 206.183594 178.308594 206.390625 178.308594 L 207.132812 178.308594 C 207.246094 178.308594 207.34375 178.367188 207.414062 178.449219 L 207.414062 155.085938 C 207.414062 152.074219 204.972656 149.632812 201.960938 149.632812 L 173.109375 149.632812 C 170.097656 149.632812 167.65625 152.074219 167.65625 155.085938 " fill-opacity="1" fill-rule="nonzero"/></g><g fill="#2ea4e7" fill-opacity="1"><g transform="translate(97.222757, 272.364973)"><g><path d="M 9.59375 -20.515625 C 12.175781 -20.515625 13.46875 -19.140625 13.46875 -16.390625 L 13.46875 0 L 9.09375 0 L 9.09375 -6.78125 L 5.9375 -6.78125 L 5.9375 0 L 1.5625 0 L 1.5625 -16.390625 C 1.5625 -19.140625 2.851562 -20.515625 5.4375 -20.515625 Z M 5.9375 -10.15625 L 9.09375 -10.15625 L 9.09375 -16.921875 C 9.09375 -17.085938 9.035156 -17.234375 8.921875 -17.359375 C 8.804688 -17.484375 8.664062 -17.546875 8.5 -17.546875 L 6.53125 -17.546875 C 6.363281 -17.546875 6.222656 -17.484375 6.109375 -17.359375 C 5.992188 -17.234375 5.9375 -17.085938 5.9375 -16.921875 Z M 5.9375 -10.15625 "/></g></g></g><g fill="#2ea4e7" fill-opacity="1"><g transform="translate(112.369492, 272.364973)"><g><path d="M 5.9375 -8.28125 L 5.9375 0 L 1.5625 0 L 1.5625 -20.203125 L 9.34375 -20.203125 C 11.925781 -20.203125 13.21875 -18.828125 13.21875 -16.078125 L 13.21875 -13.75 C 13.21875 -12.082031 12.625 -11.019531 11.4375 -10.5625 C 12.476562 -10.1875 13 -9.332031 13 -8 L 13 0 L 8.625 0 L 8.625 -7.65625 C 8.625 -8.070312 8.425781 -8.28125 8.03125 -8.28125 Z M 5.9375 -17.234375 L 5.9375 -11.34375 L 8.25 -11.34375 C 8.414062 -11.34375 8.554688 -11.40625 8.671875 -11.53125 C 8.785156 -11.65625 8.84375 -11.800781 8.84375 -11.96875 L 8.84375 -16.609375 C 8.84375 -16.773438 8.785156 -16.921875 8.671875 -17.046875 C 8.554688 -17.171875 8.414062 -17.234375 8.25 -17.234375 Z M 5.9375 -17.234375 "/></g></g></g><g fill="#2ea4e7" fill-opacity="1"><g transform="translate(126.829159, 272.364973)"><g><path d="M 5.9375 -3.625 L 10.78125 -3.625 L 10.78125 0 L 1.5625 0 L 1.5625 -20.203125 L 10.78125 -20.203125 L 10.78125 -16.640625 L 5.9375 -16.640625 L 5.9375 -11.90625 L 10.46875 -11.90625 L 10.46875 -8.46875 L 5.9375 -8.46875 Z M 5.9375 -3.625 "/></g></g></g><g fill="#2ea4e7" fill-opacity="1"><g transform="translate(138.57178, 272.364973)"><g/></g></g><g fill="#2ea4e7" fill-opacity="1"><g transform="translate(144.880324, 272.364973)"><g><path d="M 13.28125 -20.203125 L 8.9375 -7.375 L 8.9375 0 L 4.5625 0 L 4.5625 -7.375 L 0.21875 -20.203125 L 4.34375 -20.203125 L 6.75 -11.78125 L 9.15625 -20.203125 Z M 13.28125 -20.203125 "/></g></g></g><g fill="#2ea4e7" fill-opacity="1"><g transform="translate(158.465547, 272.364973)"><g><path d="M 13.46875 -16.390625 L 13.46875 -3.8125 C 13.46875 -1.0625 12.175781 0.3125 9.59375 0.3125 L 5.4375 0.3125 C 2.851562 0.3125 1.5625 -1.0625 1.5625 -3.8125 L 1.5625 -16.390625 C 1.5625 -19.140625 2.851562 -20.515625 5.4375 -20.515625 L 9.59375 -20.515625 C 12.175781 -20.515625 13.46875 -19.140625 13.46875 -16.390625 Z M 9.09375 -3.3125 L 9.09375 -16.921875 C 9.09375 -17.085938 9.035156 -17.234375 8.921875 -17.359375 C 8.804688 -17.484375 8.664062 -17.546875 8.5 -17.546875 L 6.53125 -17.546875 C 6.363281 -17.546875 6.222656 -17.484375 6.109375 -17.359375 C 5.992188 -17.234375 5.9375 -17.085938 5.9375 -16.921875 L 5.9375 -3.3125 C 5.9375 -3.144531 5.992188 -3 6.109375 -2.875 C 6.222656 -2.75 6.363281 -2.6875 6.53125 -2.6875 L 8.5 -2.6875 C 8.664062 -2.6875 8.804688 -2.75 8.921875 -2.875 C 9.035156 -3 9.09375 -3.144531 9.09375 -3.3125 Z M 9.09375 -3.3125 "/></g></g></g><g fill="#2ea4e7" fill-opacity="1"><g transform="translate(173.581051, 272.364973)"><g><path d="M 8.78125 -20.203125 L 13.15625 -20.203125 L 13.15625 -3.8125 C 13.15625 -1.0625 11.863281 0.3125 9.28125 0.3125 L 5.40625 0.3125 C 2.820312 0.3125 1.53125 -1.0625 1.53125 -3.8125 L 1.53125 -20.203125 L 5.90625 -20.203125 L 5.90625 -3.4375 C 5.90625 -3.269531 5.960938 -3.125 6.078125 -3 C 6.191406 -2.875 6.332031 -2.8125 6.5 -2.8125 L 8.1875 -2.8125 C 8.351562 -2.8125 8.492188 -2.875 8.609375 -3 C 8.722656 -3.125 8.78125 -3.269531 8.78125 -3.4375 Z M 8.78125 -20.203125 "/></g></g></g><g fill="#2ea4e7" fill-opacity="1"><g transform="translate(188.165641, 272.364973)"><g/></g></g><g fill="#d780d9" fill-opacity="1"><g transform="translate(194.476657, 272.364973)"><g><path d="M 5.9375 -8.28125 L 5.9375 0 L 1.5625 0 L 1.5625 -20.203125 L 9.34375 -20.203125 C 11.925781 -20.203125 13.21875 -18.828125 13.21875 -16.078125 L 13.21875 -13.75 C 13.21875 -12.082031 12.625 -11.019531 11.4375 -10.5625 C 12.476562 -10.1875 13 -9.332031 13 -8 L 13 0 L 8.625 0 L 8.625 -7.65625 C 8.625 -8.070312 8.425781 -8.28125 8.03125 -8.28125 Z M 5.9375 -17.234375 L 5.9375 -11.34375 L 8.25 -11.34375 C 8.414062 -11.34375 8.554688 -11.40625 8.671875 -11.53125 C 8.785156 -11.65625 8.84375 -11.800781 8.84375 -11.96875 L 8.84375 -16.609375 C 8.84375 -16.773438 8.785156 -16.921875 8.671875 -17.046875 C 8.554688 -17.171875 8.414062 -17.234375 8.25 -17.234375 Z M 5.9375 -17.234375 "/></g></g></g><g fill="#d780d9" fill-opacity="1"><g transform="translate(208.936323, 272.364973)"><g><path d="M 5.9375 -3.625 L 10.78125 -3.625 L 10.78125 0 L 1.5625 0 L 1.5625 -20.203125 L 10.78125 -20.203125 L 10.78125 -16.640625 L 5.9375 -16.640625 L 5.9375 -11.90625 L 10.46875 -11.90625 L 10.46875 -8.46875 L 5.9375 -8.46875 Z M 5.9375 -3.625 "/></g></g></g><g fill="#d780d9" fill-opacity="1"><g transform="translate(220.678945, 272.364973)"><g><path d="M 9.59375 -20.515625 C 12.175781 -20.515625 13.46875 -19.140625 13.46875 -16.390625 L 13.46875 0 L 9.09375 0 L 9.09375 -6.78125 L 5.9375 -6.78125 L 5.9375 0 L 1.5625 0 L 1.5625 -16.390625 C 1.5625 -19.140625 2.851562 -20.515625 5.4375 -20.515625 Z M 5.9375 -10.15625 L 9.09375 -10.15625 L 9.09375 -16.921875 C 9.09375 -17.085938 9.035156 -17.234375 8.921875 -17.359375 C 8.804688 -17.484375 8.664062 -17.546875 8.5 -17.546875 L 6.53125 -17.546875 C 6.363281 -17.546875 6.222656 -17.484375 6.109375 -17.359375 C 5.992188 -17.234375 5.9375 -17.085938 5.9375 -16.921875 Z M 5.9375 -10.15625 "/></g></g></g><g fill="#d780d9" fill-opacity="1"><g transform="translate(235.82568, 272.364973)"><g><path d="M 9.59375 -20.203125 C 12.175781 -20.203125 13.46875 -18.828125 13.46875 -16.078125 L 13.46875 -4.125 C 13.46875 -1.375 12.175781 0 9.59375 0 L 1.5625 0 L 1.5625 -20.203125 Z M 9.09375 -3.625 L 9.09375 -16.609375 C 9.09375 -16.773438 9.035156 -16.921875 8.921875 -17.046875 C 8.804688 -17.171875 8.664062 -17.234375 8.5 -17.234375 L 5.9375 -17.234375 L 5.9375 -3 L 8.5 -3 C 8.664062 -3 8.804688 -3.0625 8.921875 -3.1875 C 9.035156 -3.3125 9.09375 -3.457031 9.09375 -3.625 Z M 9.09375 -3.625 "/></g></g></g><g fill="#d780d9" fill-opacity="1"><g transform="translate(250.972415, 272.364973)"><g><path d="M 13.28125 -20.203125 L 8.9375 -7.375 L 8.9375 0 L 4.5625 0 L 4.5625 -7.375 L 0.21875 -20.203125 L 4.34375 -20.203125 L 6.75 -11.78125 L 9.15625 -20.203125 Z M 13.28125 -20.203125 "/></g></g></g><g fill="#d780d9" fill-opacity="1"><g transform="translate(264.557638, 272.364973)"><g><path d="M 8.03125 -8.28125 C 7.863281 -8.28125 7.722656 -8.21875 7.609375 -8.09375 C 7.492188 -7.96875 7.4375 -7.820312 7.4375 -7.65625 L 7.4375 -5.9375 L 3.78125 -5.9375 L 3.78125 -7.71875 C 3.78125 -10.46875 5.070312 -11.84375 7.65625 -11.84375 L 7.8125 -11.84375 C 7.976562 -11.84375 8.117188 -11.90625 8.234375 -12.03125 C 8.347656 -12.15625 8.40625 -12.300781 8.40625 -12.46875 L 8.40625 -16.171875 C 8.40625 -16.335938 8.347656 -16.484375 8.234375 -16.609375 C 8.117188 -16.734375 7.976562 -16.796875 7.8125 -16.796875 L 5.4375 -16.796875 C 5.269531 -16.796875 5.128906 -16.734375 5.015625 -16.609375 C 4.898438 -16.484375 4.84375 -16.335938 4.84375 -16.171875 L 4.84375 -14.59375 L 0.96875 -14.59375 L 0.96875 -16.078125 C 0.96875 -18.828125 2.257812 -20.203125 4.84375 -20.203125 L 8.3125 -20.203125 C 10.894531 -20.203125 12.1875 -18.828125 12.1875 -16.078125 L 12.1875 -12.40625 C 12.1875 -9.65625 10.894531 -8.28125 8.3125 -8.28125 Z M 3.4375 -1.9375 C 3.4375 -2.5625 3.65625 -3.09375 4.09375 -3.53125 C 4.53125 -3.96875 5.0625 -4.1875 5.6875 -4.1875 C 6.3125 -4.1875 6.84375 -3.96875 7.28125 -3.53125 C 7.71875 -3.09375 7.9375 -2.5625 7.9375 -1.9375 C 7.9375 -1.3125 7.71875 -0.78125 7.28125 -0.34375 C 6.84375 0.09375 6.3125 0.3125 5.6875 0.3125 C 5.0625 0.3125 4.53125 0.09375 4.09375 -0.34375 C 3.65625 -0.78125 3.4375 -1.3125 3.4375 -1.9375 Z M 3.4375 -1.9375 "/></g></g></g></svg>