<svg xmlns="http://www.w3.org/2000/svg" xmlns:xlink="http://www.w3.org/1999/xlink" width="500" zoomAndPan="magnify" viewBox="0 0 375 374.999991" height="500" preserveAspectRatio="xMidYMid meet" version="1.0"><defs><clipPath id="0b48754321"><path d="M 255 12.125 L 335.25 12.125 L 335.25 89 L 255 89 Z M 255 12.125 " clip-rule="nonzero"/></clipPath><clipPath id="0bedd2af17"><path d="M 117 116 L 318 116 L 318 363.125 L 117 363.125 Z M 117 116 " clip-rule="nonzero"/></clipPath><clipPath id="43189267d4"><path d="M 37.5 90 L 293 90 L 293 302 L 37.5 302 Z M 37.5 90 " clip-rule="nonzero"/></clipPath></defs><g clip-path="url(#0b48754321)"><path fill="#d780d9" d="M 297.84375 73.878906 C 298.558594 70.703125 300.046875 63.824219 300.628906 57.792969 C 300.695312 57.015625 301.472656 56.496094 302.25 56.753906 L 335.171875 67.132812 L 335.042969 64.019531 C 335.042969 63.4375 334.71875 62.917969 334.265625 62.59375 L 324.027344 55.132812 L 324.609375 51.371094 C 324.675781 51.046875 324.414062 50.789062 324.089844 50.722656 L 320.589844 50.398438 C 320.265625 50.332031 319.941406 50.65625 320.007812 50.980469 L 320.074219 52.214844 L 315.019531 48.515625 L 315.535156 44.949219 C 315.601562 44.625 315.34375 44.367188 315.082031 44.300781 L 311.257812 43.78125 C 310.933594 43.71875 310.609375 44.042969 310.609375 44.367188 L 310.675781 45.339844 L 303.351562 40.019531 C 302.511719 39.4375 302.121094 38.398438 302.1875 37.425781 C 302.640625 33.273438 303.871094 22.375 304.066406 19.78125 C 304.324219 16.601562 300.4375 12.125 300.4375 12.125 C 300.4375 12.125 295.769531 15.695312 295.382812 18.9375 C 295.058594 21.53125 294.148438 32.429688 293.761719 36.582031 C 293.695312 37.621094 293.046875 38.460938 292.140625 38.917969 L 283.976562 42.679688 L 284.167969 41.769531 C 284.234375 41.445312 284.039062 41.121094 283.652344 41.058594 L 279.761719 40.796875 C 279.4375 40.796875 279.179688 40.992188 279.179688 41.316406 L 278.984375 44.949219 L 273.347656 47.542969 L 273.671875 46.3125 C 273.734375 45.988281 273.542969 45.664062 273.21875 45.597656 L 269.71875 45.273438 C 269.394531 45.273438 269.132812 45.46875 269.132812 45.792969 L 268.941406 49.554688 L 257.402344 54.9375 C 256.886719 55.199219 256.496094 55.652344 256.367188 56.171875 L 255.652344 59.21875 L 289.9375 55.523438 C 290.714844 55.457031 291.363281 56.105469 291.296875 56.886719 C 290.714844 62.917969 290.78125 69.921875 290.910156 73.167969 C 290.910156 74.269531 290.324219 75.308594 289.289062 75.761719 L 276.523438 81.535156 L 275.550781 85.554688 L 290.519531 83.675781 C 290.714844 85.75 292.917969 88.085938 292.917969 88.085938 C 292.917969 88.085938 295.511719 86.207031 296.09375 84.195312 L 310.417969 88.996094 L 310.285156 84.84375 L 298.878906 76.667969 C 297.972656 76.085938 297.585938 74.984375 297.84375 73.878906 Z M 297.84375 73.878906 " fill-opacity="1" fill-rule="nonzero"/></g><path fill="#d780d9" d="M 154.296875 256.484375 C 128.179688 242.019531 110.808594 213.671875 112.234375 181.429688 C 114.050781 139.851562 147.425781 105.988281 188.96875 103.65625 C 220.59375 101.902344 248.589844 118.316406 263.5625 143.355469 C 271.207031 128.371094 276.199219 115.136719 279.375 105.535156 C 280.992188 100.476562 279.179688 94.960938 274.902344 91.847656 C 269.847656 88.152344 264.53125 84.972656 258.828125 82.183594 C 239.839844 72.84375 217.484375 68.496094 193.632812 69.144531 C 169.71875 68.496094 147.425781 72.90625 128.4375 82.183594 C 112.171875 90.164062 98.367188 101.773438 88.0625 117.082031 C 60 158.664062 64.796875 217.042969 95.253906 270.625 C 98.171875 275.75 104.328125 278.019531 109.835938 276.074219 C 125.519531 270.625 140.363281 264.136719 154.296875 256.484375 Z M 154.296875 256.484375 " fill-opacity="1" fill-rule="nonzero"/><g clip-path="url(#0bedd2af17)"><path fill="#2ea4e7" d="M 298.621094 116.109375 C 298.558594 116.109375 298.558594 116.109375 298.621094 116.109375 C 294.796875 142.835938 287.605469 167.09375 277.039062 188.695312 C 275.613281 191.617188 274.578125 194.730469 274.058594 197.90625 C 269.070312 229.238281 246.191406 254.730469 216.1875 263.359375 C 213.011719 264.265625 209.964844 265.695312 207.179688 267.574219 C 201.863281 271.078125 196.355469 274.386719 190.585938 277.4375 C 166.027344 290.605469 140.6875 298.582031 117.550781 303.382812 C 131.289062 320.378906 147.683594 336.335938 166.609375 350.347656 C 170.433594 353.136719 174.257812 355.859375 178.078125 358.457031 C 187.410156 364.683594 199.660156 364.683594 208.992188 358.457031 C 212.882812 355.859375 216.703125 353.203125 220.464844 350.347656 C 307.824219 285.480469 342.949219 180.328125 298.621094 116.109375 Z M 298.621094 116.109375 " fill-opacity="1" fill-rule="nonzero"/></g><path fill="#d780d9" d="M 255.847656 222.882812 C 250.535156 229.757812 244.765625 236.246094 238.546875 242.34375 C 245.414062 236.957031 251.3125 230.339844 255.847656 222.882812 Z M 255.847656 222.882812 " fill-opacity="1" fill-rule="nonzero"/><g clip-path="url(#43189267d4)"><path fill="#d780d9" d="M 37.640625 301.046875 C 37.640625 301.046875 278.207031 320.507812 292.398438 90.875 C 292.398438 90.941406 257.273438 274.90625 37.640625 301.046875 Z M 37.640625 301.046875 " fill-opacity="1" fill-rule="nonzero"/></g><path fill="#2ea4e7" d="M 173.023438 176.5 L 195.449219 196.089844 C 196.808594 197.257812 198.949219 196.546875 199.335938 194.792969 L 203.355469 174.75 C 203.550781 173.90625 204.519531 173.515625 205.234375 174.035156 L 216.898438 182.597656 C 218.324219 183.636719 220.335938 182.792969 220.59375 181.042969 L 227.980469 135.894531 C 228.109375 134.984375 229.277344 134.53125 229.992188 135.179688 L 252.996094 155.484375 C 254.359375 156.714844 256.496094 156.328125 257.402344 154.769531 C 257.859375 153.992188 258.246094 153.277344 258.699219 152.5 C 241.527344 118.121094 197.910156 99.242188 154.488281 122.53125 C 144.640625 127.785156 136.472656 135.894531 131.160156 145.753906 C 109.125 186.6875 124.484375 227.683594 154.945312 246.816406 C 156.371094 247.726562 158.183594 246.882812 158.507812 245.261719 L 171.015625 177.214844 C 171.210938 176.308594 172.3125 175.917969 173.023438 176.5 Z M 173.023438 176.5 " fill-opacity="1" fill-rule="nonzero"/></svg>